<?xml version="1.0" standalone="no"?>
<!DOCTYPE svg PUBLIC "-//W3C//DTD SVG 20010904//EN"
 "http://www.w3.org/TR/2001/REC-SVG-20010904/DTD/svg10.dtd">
<svg version="1.0" xmlns="http://www.w3.org/2000/svg"
 width="1024.000000pt" height="1024.000000pt" viewBox="0 0 1024.000000 1024.000000"
 preserveAspectRatio="xMidYMid meet">

<g transform="translate(0.000000,1024.000000) scale(0.100000,-0.100000)"
fill="#000000" stroke="none">
<path d="M3725 8724 c-265 -40 -511 -133 -725 -274 -244 -161 -397 -325 -490
-524 -61 -130 -72 -181 -76 -365 l-4 -164 -44 -51 c-186 -219 -383 -470 -405
-516 -24 -50 -26 -67 -27 -188 l-1 -133 -244 -261 c-134 -145 -293 -314 -353
-376 -131 -138 -161 -192 -154 -283 6 -79 35 -119 173 -239 l110 -94 6 -82 c7
-99 44 -185 113 -261 l47 -52 -12 -67 c-18 -105 -6 -290 26 -399 49 -165 105
-245 273 -386 86 -71 261 -196 316 -224 40 -21 40 -37 3 -135 -109 -293 -153
-592 -127 -880 14 -162 50 -364 85 -480 14 -47 37 -137 52 -200 l26 -115 1466
1 c806 1 1504 4 1551 8 319 27 682 104 926 195 244 91 543 247 749 390 221
153 490 404 660 616 279 347 454 717 585 1231 78 307 111 588 113 949 2 768
-171 1375 -553 1945 -101 150 -144 204 -287 362 -227 253 -533 484 -903 686
-340 185 -844 324 -1331 367 -237 20 -1407 20 -1544 -1z m1600 -478 c396 -45
781 -154 1047 -297 270 -145 460 -282 657 -474 239 -233 364 -407 524 -732
173 -352 256 -627 297 -988 18 -158 23 -404 11 -575 -46 -656 -206 -1138 -534
-1610 -257 -369 -583 -640 -1028 -854 -276 -133 -597 -216 -954 -245 -138 -11
-2349 -1 -2361 12 -17 17 70 280 172 514 139 320 369 614 712 908 168 145 341
279 349 272 12 -13 -166 -300 -285 -461 -112 -151 -175 -221 -401 -446 -236
-234 -279 -292 -347 -466 -25 -66 -48 -125 -51 -131 -4 -10 183 -13 913 -13
905 0 1104 6 1336 35 429 55 789 184 1113 400 154 103 252 184 386 321 331
340 553 759 657 1244 46 210 82 563 82 790 0 513 -160 1043 -443 1473 -332
505 -886 883 -1537 1047 -434 110 -1159 142 -1577 70 -488 -83 -811 -297 -973
-643 -22 -47 -40 -90 -40 -97 0 -7 28 14 63 46 189 175 516 336 802 393 287
57 709 42 1035 -37 l75 -18 -110 -8 c-415 -27 -735 -126 -1019 -316 -59 -40
-106 -74 -103 -76 2 -2 51 3 108 11 249 34 429 29 677 -21 325 -65 665 -230
876 -426 l80 -73 644 -6 c538 -5 645 -8 653 -20 48 -76 177 -410 194 -503 l8
-38 -548 7 -547 8 15 -29 c47 -91 107 -349 107 -457 l0 -50 63 6 c34 4 225 9
425 13 l362 7 -2 -284 -3 -284 -426 3 -426 3 -7 -63 c-15 -147 -109 -410 -206
-578 l-49 -85 431 -3 c487 -3 473 -4 658 74 61 26 113 44 117 41 9 -9 -51
-168 -89 -237 -79 -143 -226 -283 -378 -360 -73 -37 -205 -78 -292 -91 -58 -8
-201 -10 -487 -7 l-405 5 -56 -47 c-124 -107 -351 -239 -579 -335 -159 -67
-381 -148 -381 -137 0 4 53 43 117 87 492 339 784 639 959 987 24 48 59 111
78 140 159 250 248 639 233 1018 -23 574 -317 1072 -762 1289 -203 100 -425
150 -695 158 -183 5 -196 1 -105 -32 223 -81 482 -259 626 -432 268 -320 399
-700 399 -1156 -1 -428 -119 -791 -377 -1155 -68 -95 -187 -230 -197 -222 -3
3 9 30 27 60 158 263 265 534 314 800 25 134 25 460 0 580 -85 399 -248 657
-542 851 -52 35 -273 149 -287 149 -3 0 19 -37 48 -82 108 -163 185 -357 221
-551 26 -142 23 -420 -6 -557 -66 -310 -204 -578 -410 -793 -107 -111 -199
-188 -469 -391 -307 -230 -414 -336 -557 -551 -190 -284 -298 -562 -344 -879
-9 -66 -20 -113 -23 -104 -4 9 -14 76 -23 148 -24 182 -17 478 14 598 45 177
143 401 229 522 62 87 242 266 375 372 60 48 186 140 280 205 95 65 210 150
258 189 290 241 435 544 433 909 0 165 -13 224 -81 365 l-46 95 -8 -60 c-4
-33 -15 -80 -24 -105 -55 -153 -221 -294 -455 -384 -272 -106 -358 -155 -486
-281 -114 -113 -155 -188 -162 -299 -2 -40 1 -96 7 -126 6 -29 10 -55 7 -57
-2 -2 -32 13 -67 33 -181 107 -414 194 -633 239 -148 30 -209 51 -286 97 -92
56 -140 138 -140 238 1 44 2 46 68 92 37 26 103 79 147 117 67 58 81 76 86
108 4 21 6 39 4 41 -1 2 -43 -4 -91 -13 -113 -21 -464 -33 -464 -16 0 24 60
129 117 206 58 78 382 444 509 575 l63 65 41 165 c23 91 49 177 56 193 8 15
102 116 209 225 l194 198 36 130 c64 226 157 391 315 557 135 143 241 208 463
286 214 74 260 83 492 91 350 13 1148 4 1310 -14z m-3262 -3502 c298 -75 490
-156 577 -244 50 -49 122 -163 110 -173 -3 -2 -36 -25 -75 -52 -38 -27 -111
-92 -162 -143 l-92 -94 -121 73 c-66 40 -145 93 -175 116 -115 90 -204 267
-207 408 -1 64 17 135 33 135 6 0 56 -12 112 -26z"/>
<path d="M2910 6645 c-83 -13 -248 -57 -278 -74 -9 -5 -21 -27 -28 -50 -13
-46 -17 -44 79 -56 29 -4 47 -11 47 -19 0 -48 -58 -150 -129 -230 l-36 -39 71
7 c231 23 359 74 489 196 96 91 171 132 325 180 58 18 109 36 113 40 9 8 -177
37 -323 50 -139 12 -227 11 -330 -5z"/>
</g>
</svg>
